<svg width="192" height="158" viewBox="0 0 192 158" fill="none" xmlns="http://www.w3.org/2000/svg">
<path d="M4 0.5H188C189.933 0.5 191.5 2.067 191.5 4V131.802C191.5 132.673 191.175 133.513 190.589 134.157L172.636 153.894C171.332 155.327 169.112 155.429 167.683 154.12L145.756 134.031C144.926 133.271 143.841 132.849 142.716 132.849H4C2.06701 132.849 0.5 131.282 0.5 129.349V4C0.5 2.067 2.067 0.5 4 0.5Z" fill="white" stroke="#D8D8D8"/>
<path d="M75.0001 28.7998L33.6001 65.3998L78.0001 97.7998" stroke="#292929" stroke-width="8" stroke-linecap="round"/>
<path d="M114 30L90 102" stroke="#FF0000" stroke-width="7" stroke-linecap="round"/>
<path d="M128.189 91.2002L158.4 64.4663L126 40.8002" stroke="#292929" stroke-width="8" stroke-linecap="round"/>
</svg>
